<svg width="1924" height="985" viewBox="0 0 1924 985" fill="none" xmlns="http://www.w3.org/2000/svg">
<g clip-path="url(#clip0_841_675)">
<rect x="2" y="2" width="1920" height="981" fill="#060D09"/>
<path d="M1888.1 -23.9457L1888.73 209.816L1415.65 209.816L1415 -34" stroke="#50E083" stroke-opacity="0.15"/>
<path d="M2006.79 404.72L1630 405.733L1630 -67.3442L2023 -68.4" stroke="#50E083" stroke-opacity="0.15"/>
<path d="M993.978 747.415L996.773 293.419L735.731 292.513L737.305 37.0158M993.978 747.415L1278.33 748.402M993.978 747.415L701.637 746.4L701.637 1006M1278.33 748.402L1279.67 529.904L1283.15 -35.09M1278.33 748.402L1277.44 892.4L1557.13 893.371L1671.14 979.768L1791 980.184M737.305 37.0158L564.83 36.417L565.535 -78.0817M737.305 37.0158L976.371 37.8458L977.203 -97.1527M2038.73 981.044L1791 980.184M1791 980.184L1793.92 507.116L2052.3 508.013" stroke="#50E083" stroke-opacity="0.15"/>
<path d="M238.454 1219.75V1052.69L35.2815 915.638V825.105H572.189V479.978H191.824M-30 479.978H191.824M191.824 479.978V290.409L123.878 239.39M-16.5 134.5L123.878 239.39M123.878 239.39V105.841M123.878 -71.7245V105.841M123.878 105.841H810V-141.25" stroke="#50E083" stroke-opacity="0.15"/>
</g>
<rect x="1.4449" y="1.4449" width="1921.11" height="982.11" stroke="url(#paint0_linear_841_675)" stroke-width="1.11021"/>
<defs>
<linearGradient id="paint0_linear_841_675" x1="200.857" y1="1.99993" x2="1762.27" y2="1143.35" gradientUnits="userSpaceOnUse">
<stop stop-color="#223027"/>
<stop offset="1" stop-color="#203226"/>
</linearGradient>
<clipPath id="clip0_841_675">
<rect x="2" y="2" width="1920" height="981" fill="white"/>
</clipPath>
</defs>
</svg>
