<svg width="684" height="77" viewBox="0 0 684 77" fill="none" xmlns="http://www.w3.org/2000/svg">
<mask id="path-1-inside-1_243_533" fill="white">
<path d="M0 0H684V76.8573H0V0Z"/>
</mask>
<path d="M0 0H684V76.8573H0V0Z" fill="url(#paint0_linear_243_533)"/>
<path d="M684 75.7471H0V77.9675H684V75.7471Z" fill="#1B261F" mask="url(#path-1-inside-1_243_533)"/>
<g filter="url(#filter0_ddd_243_533)">
<circle cx="25.3762" cy="41.2043" r="3.17203" fill="url(#paint1_linear_243_533)"/>
<circle cx="25.3762" cy="41.2043" r="3.02784" stroke="#38FF7E" stroke-width="0.288366"/>
</g>
<g filter="url(#filter1_ddd_243_533)">
<circle cx="42.8224" cy="41.2043" r="3.17203" fill="url(#paint2_linear_243_533)"/>
<circle cx="42.8224" cy="41.2043" r="3.02784" stroke="#38FF7E" stroke-width="0.288366"/>
</g>
<g filter="url(#filter2_ddd_243_533)">
<circle cx="60.2685" cy="41.2043" r="3.17203" fill="url(#paint3_linear_243_533)"/>
<circle cx="60.2685" cy="41.2043" r="3.02784" stroke="#38FF7E" stroke-width="0.288366"/>
</g>
<g filter="url(#filter3_d_243_533)">
<path d="M500.969 47.5171C500.218 47.5102 499.456 47.4789 498.684 47.4232C497.911 47.3676 497.167 47.2702 496.451 47.1311C495.734 46.985 495.059 46.7902 494.426 46.5467C493.793 46.2963 493.244 45.9728 492.778 45.5763C492.311 45.1798 491.943 44.6998 491.671 44.1363C491.4 43.5658 491.265 42.8945 491.265 42.1224C491.265 41.7398 491.306 41.3745 491.39 41.0267C491.473 40.6719 491.581 40.3276 491.713 39.9937C491.845 39.6598 491.995 39.3363 492.162 39.0232C492.329 38.7032 492.496 38.3867 492.663 38.0737L494.604 39.7015C494.485 39.8615 494.35 40.0806 494.197 40.3589C494.051 40.6371 493.918 40.9328 493.8 41.2458C493.689 41.5589 493.612 41.8615 493.571 42.1537C493.557 42.2511 493.55 42.345 493.55 42.4354C493.55 42.6093 493.581 42.7624 493.644 42.8945C493.797 43.2076 494.085 43.4858 494.51 43.7293C494.941 43.9658 495.477 44.1676 496.117 44.3345C496.764 44.4945 497.498 44.6163 498.318 44.6998C499.146 44.7832 500.03 44.825 500.969 44.825C501.491 44.825 502.078 44.8076 502.732 44.7728C503.393 44.738 504.071 44.6719 504.767 44.5745C505.47 44.4771 506.158 44.345 506.833 44.178C507.515 44.0041 508.138 43.778 508.701 43.4998C508.618 43.0963 508.503 42.7067 508.357 42.3311C508.218 41.9554 508.058 41.5867 507.877 41.225C507.696 40.8632 507.505 40.5084 507.303 40.1606C507.101 39.8058 506.896 39.4511 506.687 39.0963L508.92 37.6458C508.941 37.6458 509.004 37.7502 509.108 37.9589C509.219 38.1606 509.351 38.4284 509.505 38.7624C509.665 39.0963 509.831 39.4754 510.005 39.8998C510.179 40.3241 510.339 40.7519 510.485 41.1832C510.631 41.6145 510.753 42.0319 510.851 42.4354C510.948 42.8319 510.997 43.1763 510.997 43.4684C510.997 43.8789 510.892 44.2511 510.684 44.585C510.475 44.9189 510.19 45.2215 509.828 45.4928C509.466 45.7641 509.045 46.0041 508.565 46.2128C508.085 46.4145 507.574 46.5919 507.031 46.745C506.496 46.8911 505.943 47.0163 505.372 47.1206C504.809 47.225 504.259 47.305 503.724 47.3606C503.188 47.4232 502.684 47.465 502.211 47.4858C501.835 47.5067 501.494 47.5171 501.188 47.5171C501.111 47.5171 501.038 47.5171 500.969 47.5171ZM500.958 36.9154L499.185 38.6893L497.39 36.905L499.164 35.1206L500.958 36.9154ZM504.903 36.9258L503.129 38.7102L501.334 36.9154L503.108 35.1415L504.903 36.9258ZM518.317 47.5171H517.899C516.487 47.5171 515.416 47.1624 514.685 46.4528C513.955 45.7432 513.586 44.6719 513.579 43.2389C513.579 43.0163 513.586 42.6511 513.6 42.1432C513.614 41.6284 513.621 41.0024 513.621 40.265C513.621 39.8267 513.618 39.3571 513.611 38.8563C513.604 38.3484 513.593 37.8337 513.579 37.3119C513.565 36.7832 513.545 36.258 513.517 35.7363C513.496 35.2076 513.468 34.6998 513.433 34.2128C513.398 33.7189 513.357 33.2598 513.308 32.8354C513.259 32.4041 513.204 32.025 513.141 31.698L515.76 30.9154C515.837 31.3189 515.906 31.8128 515.969 32.3971C516.031 32.9745 516.087 33.5937 516.136 34.2545C516.185 34.9154 516.219 35.5902 516.24 36.2789C516.268 36.9606 516.282 37.6041 516.282 38.2093C516.282 38.578 516.285 38.9711 516.292 39.3884C516.299 39.7989 516.303 40.1606 516.303 40.4737C516.303 40.738 516.299 40.9884 516.292 41.225C516.292 41.4545 516.289 41.6771 516.282 41.8928C516.282 42.1084 516.278 42.3206 516.271 42.5293C516.271 42.738 516.271 42.9502 516.271 43.1658C516.271 43.2215 516.271 43.2771 516.271 43.3328C516.271 43.5832 516.296 43.8058 516.345 44.0006C516.4 44.1954 516.494 44.3589 516.626 44.4911C516.758 44.6163 516.925 44.7067 517.127 44.7624C517.336 44.818 517.576 44.8458 517.847 44.8458H518.317V47.5171ZM517.904 44.8458H519.584C519.911 44.8458 520.244 44.8284 520.585 44.7937C520.933 44.7519 521.246 44.6719 521.524 44.5537C521.803 44.4284 522.029 44.2511 522.203 44.0215C522.384 43.7919 522.474 43.4858 522.474 43.1032C522.474 42.9224 522.436 42.6684 522.359 42.3415C522.283 42.0145 522.182 41.6528 522.057 41.2563C521.931 40.8598 521.782 40.4493 521.608 40.025C521.441 39.6006 521.264 39.2041 521.076 38.8354L523.486 37.6458C523.66 38.0424 523.834 38.4632 524.008 38.9084C524.182 39.3537 524.335 39.8128 524.467 40.2858C524.606 40.7519 524.718 41.2215 524.801 41.6945C524.884 42.1676 524.926 42.6302 524.926 43.0824C524.926 43.8615 524.794 44.5328 524.53 45.0963C524.265 45.6528 523.897 46.1119 523.424 46.4737C522.951 46.8284 522.384 47.0893 521.723 47.2563C521.069 47.4302 520.349 47.5171 519.563 47.5171H517.904V44.8458ZM523.278 50.9084L521.274 52.9119L519.281 50.9084L521.274 48.9154L523.278 50.9084ZM533.235 54.6963C532.164 54.6963 531.19 54.5363 530.313 54.2163C529.437 53.8963 528.685 53.4371 528.059 52.8389C527.44 52.2406 526.96 51.5102 526.619 50.6476C526.278 49.7919 526.108 48.825 526.108 47.7467C526.108 46.6406 526.268 45.545 526.588 44.4598C526.915 43.3745 527.402 42.345 528.049 41.3711L530.105 42.8632C529.979 43.0371 529.823 43.2945 529.635 43.6354C529.454 43.9763 529.28 44.3693 529.113 44.8145C528.946 45.2598 528.8 45.7398 528.675 46.2545C528.557 46.7693 528.498 47.2876 528.498 47.8093C528.498 48.4284 528.626 48.9919 528.884 49.4998C529.148 50.0076 529.503 50.4424 529.948 50.8041C530.393 51.1728 530.908 51.458 531.492 51.6598C532.084 51.8684 532.706 51.9798 533.36 51.9937C533.395 51.9937 533.43 51.9937 533.465 51.9937C533.952 51.9937 534.428 51.945 534.894 51.8476C535.367 51.7571 535.816 51.6145 536.24 51.4198C536.665 51.2319 537.051 51.0024 537.398 50.7311C537.746 50.4598 538.042 50.1571 538.285 49.8232C538.529 49.4893 538.717 49.1276 538.849 48.738C538.953 48.4041 539.005 48.0563 539.005 47.6945C539.005 47.6389 539.005 47.5798 539.005 47.5171C538.992 47.1971 538.936 46.8424 538.838 46.4528C538.748 46.0563 538.637 45.6563 538.505 45.2528C538.372 44.8493 538.23 44.4563 538.077 44.0737C537.931 43.6841 537.792 43.3398 537.659 43.0406C537.527 42.7415 537.416 42.5015 537.325 42.3206C537.235 42.1398 537.186 42.0493 537.179 42.0493L539.632 40.6824C539.652 40.7171 539.725 40.8945 539.851 41.2145C539.983 41.5276 540.15 41.9206 540.352 42.3937C540.616 42.9989 540.873 43.4684 541.124 43.8024C541.381 44.1293 541.632 44.3728 541.875 44.5328C542.118 44.6858 542.355 44.7763 542.585 44.8041C542.821 44.8319 543.047 44.8458 543.263 44.8458H543.607V47.5171H543.263C542.887 47.5171 542.546 47.4789 542.24 47.4024C541.934 47.3328 541.67 47.2354 541.447 47.1102C541.454 47.2424 541.458 47.3745 541.458 47.5067C541.458 48.0076 541.409 48.5328 541.312 49.0824C541.214 49.6389 541.03 50.1989 540.758 50.7624C540.494 51.3258 540.143 51.8476 539.705 52.3276C539.266 52.8076 538.738 53.2215 538.118 53.5693C537.506 53.9241 536.793 54.1989 535.979 54.3937C535.165 54.5954 534.251 54.6963 533.235 54.6963ZM535.583 40.4528L533.579 42.4563L531.586 40.4528L533.579 38.4598L535.583 40.4528ZM543.216 44.8458H545.439C545.766 44.8458 546.117 44.8284 546.493 44.7937C546.875 44.7519 547.227 44.6719 547.547 44.5537C547.874 44.4284 548.141 44.2511 548.35 44.0215C548.566 43.7919 548.674 43.4858 548.674 43.1032C548.674 42.9224 548.635 42.6684 548.559 42.3415C548.482 42.0145 548.381 41.6528 548.256 41.2563C548.131 40.8598 547.981 40.4493 547.807 40.025C547.64 39.6006 547.463 39.2041 547.275 38.8354L549.686 37.6458C549.86 38.0424 550.034 38.4632 550.207 38.9084C550.381 39.3537 550.534 39.8128 550.667 40.2858C550.806 40.7519 550.917 41.2215 551 41.6945C551.084 42.1676 551.126 42.6302 551.126 43.0824C551.126 43.8893 550.976 44.5745 550.677 45.138C550.378 45.7015 549.967 46.1606 549.446 46.5154C548.931 46.8632 548.326 47.1171 547.63 47.2771C546.941 47.4371 546.204 47.5171 545.418 47.5171H543.216V44.8458ZM547.098 50.6058L545.324 52.3798L543.529 50.5954L545.303 48.8111L547.098 50.6058ZM551.042 50.6163L549.268 52.4006L547.474 50.6058L549.247 48.8319L551.042 50.6163ZM562.45 47.5171H562.127C561.946 47.5171 561.716 47.4963 561.438 47.4545C561.167 47.4128 560.868 47.2876 560.541 47.0789C560.45 47.9554 560.183 48.7937 559.737 49.5937C559.292 50.4006 558.732 51.1554 558.057 51.858C557.389 52.5606 556.635 53.2041 555.793 53.7884C554.958 54.3728 554.099 54.8841 553.216 55.3224L552.047 52.9119C552.534 52.6615 553.024 52.3902 553.518 52.098C554.005 51.8058 554.471 51.4928 554.916 51.1589C555.362 50.825 555.776 50.4771 556.158 50.1154C556.548 49.7537 556.882 49.3745 557.16 48.978C557.445 48.5815 557.668 48.1745 557.828 47.7571C557.995 47.3398 558.078 46.9119 558.078 46.4737C558.078 46.1606 558.033 45.8163 557.943 45.4406C557.852 45.058 557.737 44.6615 557.598 44.2511C557.459 43.8406 557.309 43.4267 557.149 43.0093C556.989 42.585 556.843 42.1745 556.711 41.778L559.216 40.7345C559.487 41.5484 559.734 42.2232 559.956 42.7589C560.186 43.2876 560.409 43.7084 560.624 44.0215C560.847 44.3276 561.076 44.5432 561.313 44.6684C561.556 44.7867 561.831 44.8458 562.137 44.8458H562.461L562.45 47.5171ZM562.036 44.8458H563.341C563.682 44.8458 564.033 44.8424 564.395 44.8354C564.763 44.8284 565.118 44.8041 565.459 44.7624C565.8 44.7206 566.123 44.6545 566.429 44.5641C566.736 44.4737 567.003 44.345 567.233 44.178C567.463 44.0041 567.643 43.7884 567.776 43.5311C567.908 43.2667 567.974 42.9432 567.974 42.5606C567.974 42.0598 567.852 41.5484 567.609 41.0267C567.365 40.498 567.031 39.9589 566.607 39.4093C566.183 38.8528 565.682 38.2824 565.104 37.698C564.534 37.1137 563.918 36.5189 563.257 35.9137L563.539 33.4198L571.845 29.7258L572.899 32.2093L566.096 35.1519C566.409 35.4163 566.718 35.6945 567.024 35.9867C567.337 36.2789 567.654 36.6024 567.974 36.9571C568.454 37.4928 568.861 38.0284 569.195 38.5641C569.529 39.0928 569.796 39.6041 569.998 40.098C570.207 40.5919 570.356 41.0615 570.447 41.5067C570.544 41.9519 570.593 42.3589 570.593 42.7276C570.593 43.458 570.454 44.1189 570.176 44.7102C569.904 45.3015 569.536 45.8058 569.069 46.2232C568.603 46.6337 568.061 46.9537 567.442 47.1832C566.829 47.4058 566.186 47.5171 565.511 47.5171H562.036V44.8458ZM571.365 28.7867L563.351 32.3137L563.424 30.9884L570.906 27.7328L571.365 28.7867ZM584.307 43.9067C583.897 44.5189 583.594 45.1867 583.399 45.9102C583.204 46.6337 583.107 47.3537 583.107 48.0702C583.107 48.6406 583.239 49.1484 583.504 49.5937C583.768 50.0458 584.105 50.425 584.516 50.7311C584.926 51.0441 585.382 51.2806 585.883 51.4406C586.384 51.6076 586.87 51.6911 587.344 51.6911C587.824 51.6911 588.321 51.6076 588.836 51.4406C589.357 51.2806 589.834 51.0232 590.265 50.6684C590.697 50.3206 591.051 49.8684 591.33 49.3119C591.608 48.7624 591.747 48.0945 591.747 47.3084C591.747 46.7589 591.737 46.1119 591.716 45.3676C591.695 44.6232 591.667 43.8337 591.632 42.9989C591.604 42.1571 591.57 41.2911 591.528 40.4006C591.486 39.5102 591.444 38.6406 591.403 37.7919C591.354 36.7971 591.309 35.7606 591.267 34.6824C591.225 33.5971 591.173 32.5119 591.11 31.4267L593.834 30.9154C593.883 32.0563 593.921 33.1902 593.949 34.3171C593.977 35.4371 594.008 36.5154 594.043 37.5519L594.21 42.905C594.244 43.1693 594.307 43.4198 594.397 43.6563C594.495 43.8858 594.62 44.0911 594.773 44.2719C594.933 44.4458 595.128 44.585 595.357 44.6893C595.587 44.7937 595.855 44.8458 596.161 44.8458H596.37V47.5171H596.161C595.813 47.5171 595.479 47.4928 595.159 47.4441C594.839 47.4024 594.554 47.3119 594.304 47.1728V47.3502C594.304 48.2267 594.199 49.0093 593.99 49.698C593.789 50.3867 593.514 50.9884 593.166 51.5032C592.818 52.025 592.411 52.4667 591.945 52.8284C591.486 53.1902 590.999 53.4858 590.484 53.7154C589.977 53.945 589.458 54.1084 588.93 54.2058C588.401 54.3102 587.893 54.3624 587.406 54.3624C586.94 54.3624 586.45 54.3102 585.935 54.2058C585.427 54.1015 584.923 53.9415 584.422 53.7258C583.921 53.5102 583.444 53.2319 582.992 52.8911C582.54 52.5571 582.14 52.1571 581.792 51.6911C581.451 51.225 581.184 50.6893 580.989 50.0841C580.794 49.5067 580.697 48.8563 580.697 48.1328C580.697 48.1119 580.697 48.0876 580.697 48.0598C580.697 47.6145 580.721 47.1589 580.77 46.6928C580.825 46.2267 580.909 45.7676 581.02 45.3154C581.131 44.8632 581.27 44.4284 581.437 44.0111C581.604 43.5937 581.81 43.2111 582.053 42.8632L584.307 43.9067ZM605.258 44.8458V47.5171H605.05C604.375 47.5171 603.804 47.4093 603.338 47.1937C602.872 46.978 602.476 46.6998 602.149 46.3589C601.919 46.6511 601.578 46.8771 601.126 47.0371C600.681 47.1902 600.184 47.3015 599.634 47.3711C599.084 47.4476 598.517 47.4893 597.933 47.4963C597.356 47.5102 596.824 47.5171 596.337 47.5171H595.95V44.8458H596.337C597.15 44.8458 597.836 44.8006 598.392 44.7102C598.949 44.6128 599.397 44.4737 599.738 44.2928C600.086 44.1119 600.337 43.8858 600.49 43.6145C600.643 43.3363 600.719 43.0163 600.719 42.6545C600.719 42.418 600.674 42.105 600.584 41.7154C600.493 41.3189 600.357 40.8111 600.177 40.1919L602.744 39.4719C602.834 39.778 602.904 40.0493 602.952 40.2858C603.008 40.5154 603.05 40.7484 603.077 40.985C603.112 41.2145 603.14 41.465 603.161 41.7363C603.189 42.0006 603.217 42.3171 603.244 42.6858C603.265 42.9084 603.317 43.1484 603.401 43.4058C603.484 43.6563 603.599 43.8893 603.745 44.105C603.898 44.3137 604.083 44.4911 604.298 44.6371C604.514 44.7763 604.764 44.8458 605.05 44.8458H605.258ZM599.832 50.6058L598.058 52.3798L596.264 50.5954L598.037 48.8111L599.832 50.6058ZM603.777 50.6163L602.003 52.4006L600.208 50.6058L601.982 48.8319L603.777 50.6163ZM604.833 44.8458H605.595C605.845 44.8458 606.079 44.825 606.294 44.7832C606.51 44.7415 606.701 44.6545 606.868 44.5224C607.035 44.3832 607.171 44.1919 607.275 43.9484C607.379 43.705 607.445 43.378 607.473 42.9676C607.473 42.8076 607.477 42.5293 607.484 42.1328C607.498 41.7293 607.508 41.2528 607.515 40.7032C607.522 40.1467 607.529 39.538 607.536 38.8771C607.543 38.2163 607.546 37.5415 607.546 36.8528C607.546 36.3171 607.543 35.7919 607.536 35.2771C607.536 34.7554 607.529 34.2545 607.515 33.7745C607.508 33.2945 607.491 32.8424 607.463 32.418C607.442 31.9937 607.411 31.6076 607.369 31.2598L610.03 30.9154C610.079 31.2911 610.117 31.7154 610.145 32.1884C610.172 32.6615 610.193 33.1658 610.207 33.7015C610.228 34.2302 610.239 34.7867 610.239 35.3711C610.245 35.9484 610.249 36.5328 610.249 37.1241C610.249 38.4389 610.235 39.5832 610.207 40.5571C610.186 41.5311 610.176 42.3937 610.176 43.145C610.176 43.6737 610.312 44.0911 610.583 44.3971C610.854 44.6963 611.258 44.8458 611.793 44.8458H612.023V47.5171H611.793C611.752 47.5171 611.713 47.5171 611.679 47.5171C611.407 47.5171 611.139 47.4928 610.875 47.4441C610.618 47.4024 610.367 47.3363 610.124 47.2458C609.887 47.1624 609.668 47.0615 609.466 46.9432C609.265 46.825 609.087 46.7032 608.934 46.578C608.732 46.7728 608.51 46.9328 608.266 47.058C608.03 47.1763 607.786 47.2702 607.536 47.3398C607.285 47.4093 607.039 47.4545 606.795 47.4754C606.552 47.5032 606.332 47.5171 606.138 47.5171H604.833V44.8458ZM611.607 44.8458H613.725C614.581 44.8458 615.443 44.7624 616.313 44.5954C617.182 44.4215 618.038 44.1989 618.88 43.9276C619.722 43.6493 620.539 43.3398 621.332 42.9989C622.125 42.6511 622.873 42.3032 623.575 41.9554C623.29 41.9206 622.991 41.8511 622.678 41.7467C622.372 41.6354 622.055 41.5102 621.728 41.3711C621.402 41.225 621.068 41.0719 620.727 40.9119C620.386 40.7519 620.045 40.6093 619.704 40.4841C619.363 40.3519 619.019 40.2441 618.671 40.1606C618.33 40.0702 617.996 40.025 617.669 40.025C617.412 40.025 617.165 40.0737 616.928 40.1711C616.699 40.2615 616.48 40.3798 616.271 40.5258C616.069 40.665 615.885 40.818 615.718 40.985C615.558 41.1519 615.419 41.3084 615.301 41.4545C615.189 41.5937 615.102 41.7119 615.04 41.8093L614.935 41.9554L612.848 40.818C613.092 40.3589 613.398 39.9206 613.767 39.5032C614.142 39.0789 614.549 38.7067 614.988 38.3867C615.426 38.0598 615.875 37.8024 616.334 37.6145C616.8 37.4198 617.245 37.3224 617.669 37.3224C618.024 37.3224 618.379 37.3641 618.734 37.4476C619.095 37.5241 619.457 37.6284 619.819 37.7606C620.188 37.8928 620.556 38.0424 620.925 38.2093C621.301 38.3763 621.683 38.5467 622.073 38.7206C622.476 38.9154 622.918 39.1102 623.398 39.305C623.878 39.4928 624.372 39.6632 624.88 39.8163C625.388 39.9624 625.895 40.0841 626.403 40.1815C626.918 40.2719 627.408 40.3171 627.875 40.3171L627.426 42.8632C627.162 42.9745 626.908 43.0963 626.664 43.2284C626.421 43.3537 626.17 43.4754 625.913 43.5937C626.052 43.8858 626.261 44.1154 626.539 44.2824C626.817 44.4493 627.109 44.5745 627.415 44.658C627.728 44.7415 628.028 44.7937 628.313 44.8145C628.605 44.8354 628.835 44.8458 629.002 44.8458H629.419V47.5171H629.002C627.638 47.5171 626.483 47.2806 625.537 46.8076C624.591 46.3345 623.909 45.6632 623.492 44.7937C622.789 45.1415 622.062 45.4789 621.311 45.8058C620.56 46.1328 619.781 46.425 618.974 46.6824C618.167 46.9328 617.325 47.1345 616.448 47.2876C615.579 47.4406 614.671 47.5171 613.725 47.5171H611.607V44.8458ZM628.997 44.8458H631.22C631.547 44.8458 631.898 44.8284 632.274 44.7937C632.656 44.7519 633.008 44.6719 633.328 44.5537C633.655 44.4284 633.923 44.2511 634.131 44.0215C634.347 43.7919 634.455 43.4858 634.455 43.1032C634.455 42.9224 634.416 42.6684 634.34 42.3415C634.263 42.0145 634.163 41.6528 634.037 41.2563C633.912 40.8598 633.763 40.4493 633.589 40.025C633.422 39.6006 633.244 39.2041 633.056 38.8354L635.467 37.6458C635.641 38.0424 635.815 38.4632 635.989 38.9084C636.163 39.3537 636.316 39.8128 636.448 40.2858C636.587 40.7519 636.698 41.2215 636.782 41.6945C636.865 42.1676 636.907 42.6302 636.907 43.0824C636.907 43.8893 636.757 44.5745 636.458 45.138C636.159 45.7015 635.749 46.1606 635.227 46.5154C634.712 46.8632 634.107 47.1171 633.411 47.2771C632.723 47.4371 631.985 47.5171 631.199 47.5171H628.997V44.8458ZM633.672 33.9728L631.898 35.7467L630.103 33.9624L631.877 32.178L633.672 33.9728ZM637.616 33.9832L635.843 35.7676L634.048 33.9728L635.822 32.1989L637.616 33.9832Z" fill="white"/>
</g>
<defs>
<filter id="filter0_ddd_243_533" x="12.1552" y="27.9832" width="26.442" height="26.4419" filterUnits="userSpaceOnUse" color-interpolation-filters="sRGB">
<feFlood flood-opacity="0" result="BackgroundImageFix"/>
<feColorMatrix in="SourceAlpha" type="matrix" values="0 0 0 0 0 0 0 0 0 0 0 0 0 0 0 0 0 0 127 0" result="hardAlpha"/>
<feOffset/>
<feGaussianBlur stdDeviation="0.209354"/>
<feColorMatrix type="matrix" values="0 0 0 0 0.219608 0 0 0 0 1 0 0 0 0 0.494118 0 0 0 1 0"/>
<feBlend mode="normal" in2="BackgroundImageFix" result="effect1_dropShadow_243_533"/>
<feColorMatrix in="SourceAlpha" type="matrix" values="0 0 0 0 0 0 0 0 0 0 0 0 0 0 0 0 0 0 127 0" result="hardAlpha"/>
<feOffset/>
<feGaussianBlur stdDeviation="1.46548"/>
<feColorMatrix type="matrix" values="0 0 0 0 0.219608 0 0 0 0 1 0 0 0 0 0.494118 0 0 0 1 0"/>
<feBlend mode="normal" in2="effect1_dropShadow_243_533" result="effect2_dropShadow_243_533"/>
<feColorMatrix in="SourceAlpha" type="matrix" values="0 0 0 0 0 0 0 0 0 0 0 0 0 0 0 0 0 0 127 0" result="hardAlpha"/>
<feOffset/>
<feGaussianBlur stdDeviation="5.02449"/>
<feColorMatrix type="matrix" values="0 0 0 0 0.219608 0 0 0 0 1 0 0 0 0 0.494118 0 0 0 1 0"/>
<feBlend mode="normal" in2="effect2_dropShadow_243_533" result="effect3_dropShadow_243_533"/>
<feBlend mode="normal" in="SourceGraphic" in2="effect3_dropShadow_243_533" result="shape"/>
</filter>
<filter id="filter1_ddd_243_533" x="29.6014" y="27.9832" width="26.442" height="26.4419" filterUnits="userSpaceOnUse" color-interpolation-filters="sRGB">
<feFlood flood-opacity="0" result="BackgroundImageFix"/>
<feColorMatrix in="SourceAlpha" type="matrix" values="0 0 0 0 0 0 0 0 0 0 0 0 0 0 0 0 0 0 127 0" result="hardAlpha"/>
<feOffset/>
<feGaussianBlur stdDeviation="0.209354"/>
<feColorMatrix type="matrix" values="0 0 0 0 0.219608 0 0 0 0 1 0 0 0 0 0.494118 0 0 0 1 0"/>
<feBlend mode="normal" in2="BackgroundImageFix" result="effect1_dropShadow_243_533"/>
<feColorMatrix in="SourceAlpha" type="matrix" values="0 0 0 0 0 0 0 0 0 0 0 0 0 0 0 0 0 0 127 0" result="hardAlpha"/>
<feOffset/>
<feGaussianBlur stdDeviation="1.46548"/>
<feColorMatrix type="matrix" values="0 0 0 0 0.219608 0 0 0 0 1 0 0 0 0 0.494118 0 0 0 1 0"/>
<feBlend mode="normal" in2="effect1_dropShadow_243_533" result="effect2_dropShadow_243_533"/>
<feColorMatrix in="SourceAlpha" type="matrix" values="0 0 0 0 0 0 0 0 0 0 0 0 0 0 0 0 0 0 127 0" result="hardAlpha"/>
<feOffset/>
<feGaussianBlur stdDeviation="5.02449"/>
<feColorMatrix type="matrix" values="0 0 0 0 0.219608 0 0 0 0 1 0 0 0 0 0.494118 0 0 0 1 0"/>
<feBlend mode="normal" in2="effect2_dropShadow_243_533" result="effect3_dropShadow_243_533"/>
<feBlend mode="normal" in="SourceGraphic" in2="effect3_dropShadow_243_533" result="shape"/>
</filter>
<filter id="filter2_ddd_243_533" x="47.0475" y="27.9832" width="26.442" height="26.4419" filterUnits="userSpaceOnUse" color-interpolation-filters="sRGB">
<feFlood flood-opacity="0" result="BackgroundImageFix"/>
<feColorMatrix in="SourceAlpha" type="matrix" values="0 0 0 0 0 0 0 0 0 0 0 0 0 0 0 0 0 0 127 0" result="hardAlpha"/>
<feOffset/>
<feGaussianBlur stdDeviation="0.209354"/>
<feColorMatrix type="matrix" values="0 0 0 0 0.219608 0 0 0 0 1 0 0 0 0 0.494118 0 0 0 1 0"/>
<feBlend mode="normal" in2="BackgroundImageFix" result="effect1_dropShadow_243_533"/>
<feColorMatrix in="SourceAlpha" type="matrix" values="0 0 0 0 0 0 0 0 0 0 0 0 0 0 0 0 0 0 127 0" result="hardAlpha"/>
<feOffset/>
<feGaussianBlur stdDeviation="1.46548"/>
<feColorMatrix type="matrix" values="0 0 0 0 0.219608 0 0 0 0 1 0 0 0 0 0.494118 0 0 0 1 0"/>
<feBlend mode="normal" in2="effect1_dropShadow_243_533" result="effect2_dropShadow_243_533"/>
<feColorMatrix in="SourceAlpha" type="matrix" values="0 0 0 0 0 0 0 0 0 0 0 0 0 0 0 0 0 0 127 0" result="hardAlpha"/>
<feOffset/>
<feGaussianBlur stdDeviation="5.02449"/>
<feColorMatrix type="matrix" values="0 0 0 0 0.219608 0 0 0 0 1 0 0 0 0 0.494118 0 0 0 1 0"/>
<feBlend mode="normal" in2="effect2_dropShadow_243_533" result="effect3_dropShadow_243_533"/>
<feBlend mode="normal" in="SourceGraphic" in2="effect3_dropShadow_243_533" result="shape"/>
</filter>
<filter id="filter3_d_243_533" x="476.265" y="12.7329" width="176.352" height="57.5894" filterUnits="userSpaceOnUse" color-interpolation-filters="sRGB">
<feFlood flood-opacity="0" result="BackgroundImageFix"/>
<feColorMatrix in="SourceAlpha" type="matrix" values="0 0 0 0 0 0 0 0 0 0 0 0 0 0 0 0 0 0 127 0" result="hardAlpha"/>
<feOffset/>
<feGaussianBlur stdDeviation="7.5"/>
<feComposite in2="hardAlpha" operator="out"/>
<feColorMatrix type="matrix" values="0 0 0 0 1 0 0 0 0 1 0 0 0 0 1 0 0 0 0.72 0"/>
<feBlend mode="normal" in2="BackgroundImageFix" result="effect1_dropShadow_243_533"/>
<feBlend mode="normal" in="SourceGraphic" in2="effect1_dropShadow_243_533" result="shape"/>
</filter>
<linearGradient id="paint0_linear_243_533" x1="342" y1="0" x2="342" y2="76.8573" gradientUnits="userSpaceOnUse">
<stop stop-color="#0A160F"/>
<stop offset="0.394524" stop-color="#08100B"/>
<stop offset="0.94278" stop-color="#060D08"/>
</linearGradient>
<linearGradient id="paint1_linear_243_533" x1="25.3762" y1="38.0322" x2="25.3762" y2="44.3763" gradientUnits="userSpaceOnUse">
<stop stop-color="#38FF7E"/>
<stop offset="1" stop-color="#28CF63"/>
</linearGradient>
<linearGradient id="paint2_linear_243_533" x1="42.8224" y1="38.0322" x2="42.8224" y2="44.3763" gradientUnits="userSpaceOnUse">
<stop stop-color="#38FF7E"/>
<stop offset="1" stop-color="#28CF63"/>
</linearGradient>
<linearGradient id="paint3_linear_243_533" x1="60.2685" y1="38.0322" x2="60.2685" y2="44.3763" gradientUnits="userSpaceOnUse">
<stop stop-color="#38FF7E"/>
<stop offset="1" stop-color="#28CF63"/>
</linearGradient>
</defs>
</svg>
