<svg width="660" height="409" viewBox="0 0 660 409" fill="none" xmlns="http://www.w3.org/2000/svg">
<g clip-path="url(#clip0_243_743)">
<g clip-path="url(#clip1_243_743)">
<g clip-path="url(#clip2_243_743)">
<path d="M652.324 252.425H6.87558C3.23812 252.425 0.289368 254.788 0.289368 257.702C0.289368 260.616 3.23812 262.978 6.87558 262.978H652.324C655.962 262.978 658.911 260.616 658.911 257.702C658.911 254.788 655.962 252.425 652.324 252.425Z" fill="#FFFAFE" fill-opacity="0.1"/>
<g clip-path="url(#clip3_243_743)">
<g clip-path="url(#clip4_243_743)">
<g clip-path="url(#clip5_243_743)">
<g clip-path="url(#clip6_243_743)">
<path d="M26.6262 407.624C10.1776 407.624 1.95325 395.873 1.95325 372.371V322.808C1.95325 301.339 11.3742 290.604 30.216 290.604C37.9849 290.604 43.9321 292.164 48.0577 295.285C52.2011 298.388 55.0586 302.926 56.6303 308.899C58.2019 314.855 58.9877 322.121 58.9877 330.698H36.4847V320.508C36.4847 318.029 36.1454 315.952 35.4667 314.276C34.8059 312.599 33.4039 311.761 31.2608 311.761C28.5997 311.761 26.8405 312.653 25.9833 314.436C25.1439 316.219 24.7242 318.181 24.7242 320.32V376.009C24.7242 379.111 25.126 381.626 25.9297 383.551C26.7334 385.495 28.3139 386.467 30.6714 386.467C33.1182 386.467 34.7434 385.495 35.5471 383.551C36.3507 381.626 36.7526 379.076 36.7526 375.902V359.505H30.6178V339.659H58.7198V406.581H49.5043L45.5931 396.925C41.5747 404.058 35.2524 407.624 26.6262 407.624ZM91.2421 406.581H67.4264V308.632H91.2421V319.545C92.3672 315.747 94.3675 312.787 97.2429 310.665C100.118 308.525 103.735 307.455 108.093 307.455V326.981C106.182 326.981 103.896 327.186 101.234 327.596C98.5734 328.006 96.2427 328.577 94.2425 329.308C92.2422 330.021 91.2421 330.814 91.2421 331.688V406.581ZM141.311 407.624C134.346 407.624 128.792 406.322 124.648 403.719C120.505 401.098 117.54 397.326 115.754 392.405C113.968 387.483 113.075 381.563 113.075 374.645V335.272C113.075 326.178 115.692 319.286 120.925 314.596C126.158 309.925 133.346 307.589 142.49 307.589C161.332 307.589 170.753 316.817 170.753 335.272V342.387C170.753 351 170.664 356.795 170.485 359.773H136.489V378.71C136.489 380.44 136.596 382.143 136.811 383.819C137.025 385.495 137.516 386.877 138.284 387.965C139.052 389.053 140.284 389.596 141.981 389.596C144.428 389.596 145.955 388.544 146.562 386.44C147.169 384.318 147.473 381.563 147.473 378.175V368.76H170.753V374.324C170.753 381.635 169.851 387.76 168.047 392.699C166.225 397.638 163.171 401.365 158.885 403.88C154.581 406.376 148.723 407.624 141.311 407.624ZM136.355 334.951V348.138H147.473V334.951C147.473 331.421 147.035 328.88 146.16 327.328C145.285 325.795 143.981 325.028 142.249 325.028C140.374 325.028 138.918 325.768 137.882 327.248C136.864 328.728 136.355 331.296 136.355 334.951ZM206.731 407.624C199.748 407.624 194.185 406.322 190.041 403.719C185.898 401.098 182.933 397.326 181.147 392.405C179.361 387.483 178.468 381.563 178.468 374.645V335.272C178.468 326.178 181.085 319.286 186.317 314.596C191.55 309.925 198.739 307.589 207.883 307.589C226.725 307.589 236.146 316.817 236.146 335.272V342.387C236.146 351 236.056 356.795 235.878 359.773H201.882V378.71C201.882 380.44 201.989 382.143 202.203 383.819C202.418 385.495 202.909 386.877 203.677 387.965C204.445 389.053 205.677 389.596 207.374 389.596C209.821 389.596 211.348 388.544 211.955 386.44C212.562 384.318 212.866 381.563 212.866 378.175V368.76H236.146V374.324C236.146 381.635 235.244 387.76 233.44 392.699C231.636 397.638 228.582 401.365 224.278 403.88C219.992 406.376 214.143 407.624 206.731 407.624ZM201.748 334.951V348.138H212.866V334.951C212.866 331.421 212.428 328.88 211.553 327.328C210.678 325.795 209.374 325.028 207.642 325.028C205.766 325.028 204.311 325.768 203.275 327.248C202.257 328.728 201.748 331.296 201.748 334.951ZM268.052 406.581H244.638V308.632H268.052V321.096C268.927 317.351 270.552 314.169 272.927 311.547C275.303 308.908 278.607 307.589 282.839 307.589C289.644 307.589 294.582 309.675 297.654 313.848C300.726 318.038 302.262 323.762 302.262 331.019V406.581H279.169V333.453C279.169 331.528 278.776 329.753 277.991 328.131C277.205 326.49 275.856 325.67 273.945 325.67C272.159 325.67 270.838 326.294 269.98 327.542C269.141 328.773 268.614 330.315 268.4 332.17C268.168 334.024 268.052 335.861 268.052 337.68V406.581ZM370.548 407.624C360.028 407.624 352.447 405.012 347.803 399.787C343.16 394.563 340.838 386.244 340.838 374.832V363.625H363.609V377.988C363.609 380.645 364.011 382.722 364.815 384.22C365.618 385.718 367.02 386.467 369.021 386.467C371.128 386.467 372.584 385.861 373.387 384.648C374.191 383.418 374.593 381.412 374.593 378.63C374.593 375.099 374.245 372.148 373.548 369.777C372.852 367.405 371.637 365.14 369.905 362.983C368.19 360.843 365.806 358.329 362.752 355.44L352.411 345.65C344.696 338.375 340.838 330.065 340.838 320.722C340.838 310.914 343.115 303.443 347.67 298.307C352.224 293.172 358.823 290.604 367.467 290.604C378.022 290.604 385.505 293.412 389.916 299.029C394.345 304.646 396.56 313.179 396.56 324.627H373.146V316.736C373.146 315.167 372.7 313.946 371.807 313.072C370.914 312.198 369.708 311.761 368.19 311.761C366.351 311.761 365.002 312.269 364.145 313.286C363.306 314.32 362.886 315.64 362.886 317.244C362.886 318.849 363.323 320.588 364.199 322.46C365.074 324.333 366.797 326.49 369.369 328.933L382.63 341.665C385.291 344.197 387.737 346.863 389.97 349.662C392.184 352.48 393.97 355.752 395.328 359.479C396.667 363.188 397.337 367.726 397.337 373.093C397.337 383.881 395.346 392.334 391.363 398.45C387.38 404.566 380.442 407.624 370.548 407.624ZM432.083 407.624C425.1 407.624 419.536 406.322 415.393 403.719C411.25 401.098 408.285 397.326 406.499 392.405C404.713 387.483 403.82 381.563 403.82 374.645V335.272C403.82 326.178 406.436 319.286 411.669 314.596C416.902 309.925 424.099 307.589 433.261 307.589C452.085 307.589 461.497 316.817 461.497 335.272V342.387C461.497 351 461.408 356.795 461.23 359.773H427.234V378.71C427.234 380.44 427.341 382.143 427.555 383.819C427.77 385.495 428.261 386.877 429.029 387.965C429.797 389.053 431.029 389.596 432.726 389.596C435.172 389.596 436.699 388.544 437.307 386.44C437.914 384.318 438.217 381.563 438.217 378.175V368.76H461.497V374.324C461.497 381.635 460.595 387.76 458.792 392.699C456.988 397.638 453.934 401.365 449.63 403.88C445.343 406.376 439.494 407.624 432.083 407.624ZM427.1 334.951V348.138H438.217V334.951C438.217 331.421 437.78 328.88 436.905 327.328C436.03 325.795 434.726 325.028 432.994 325.028C431.118 325.028 429.663 325.768 428.627 327.248C427.609 328.728 427.1 331.296 427.1 334.951ZM493.403 406.581H469.99V308.632H493.403V321.096C494.279 317.351 495.904 314.169 498.279 311.547C500.654 308.908 503.958 307.589 508.191 307.589C514.996 307.589 519.934 309.675 523.006 313.848C526.078 318.038 527.613 323.762 527.613 331.019V406.581H504.521V333.453C504.521 331.528 504.137 329.753 503.369 328.131C502.583 326.49 501.226 325.67 499.297 325.67C497.511 325.67 496.19 326.294 495.332 327.542C494.493 328.773 493.966 330.315 493.752 332.17C493.52 334.024 493.403 335.861 493.403 337.68V406.581ZM563.645 407.624C544.285 407.624 534.605 397.826 534.605 378.229V370.472H558.153V381.973C558.153 384.184 558.591 385.923 559.466 387.189C560.341 388.455 561.734 389.088 563.645 389.088C567.056 389.088 568.762 386.538 568.762 381.438C568.762 377.177 567.869 373.985 566.083 371.863C564.279 369.759 562.091 367.726 559.52 365.764L547.036 356.162C543.107 353.113 540.124 349.894 538.088 346.506C536.034 343.1 535.007 338.375 535.007 332.33C535.007 326.713 536.347 322.077 539.026 318.421C541.705 314.766 545.259 312.047 549.688 310.263C554.117 308.48 558.903 307.589 564.047 307.589C583.05 307.589 592.551 317.057 592.551 335.994V337.813H568.36V334.095C568.36 332.134 568.021 330.244 567.342 328.425C566.663 326.588 565.342 325.67 563.377 325.67C560.073 325.67 558.421 327.409 558.421 330.886C558.421 334.416 559.814 337.18 562.6 339.177L577.12 349.769C581.656 353.033 585.461 356.911 588.532 361.405C591.604 365.88 593.14 371.836 593.14 379.272C593.14 388.509 590.515 395.543 585.264 400.376C580.013 405.208 572.807 407.624 563.645 407.624ZM627.806 407.624C620.822 407.624 615.259 406.322 611.116 403.719C606.99 401.098 604.026 397.326 602.222 392.405C600.436 387.483 599.543 381.563 599.543 374.645V335.272C599.543 326.178 602.159 319.286 607.392 314.596C612.625 309.925 619.822 307.589 628.984 307.589C647.826 307.589 657.247 316.817 657.247 335.272V342.387C657.247 351 657.158 356.795 656.979 359.773H622.957V378.71C622.957 380.44 623.073 382.143 623.305 383.819C623.519 385.495 624.001 386.877 624.752 387.965C625.52 389.053 626.752 389.596 628.448 389.596C630.895 389.596 632.422 388.544 633.029 386.44C633.655 384.318 633.967 381.563 633.967 378.175V368.76H657.247V374.324C657.247 381.635 656.336 387.76 654.515 392.699C652.711 397.638 649.666 401.365 645.379 403.88C641.075 406.376 635.217 407.624 627.806 407.624ZM622.823 334.951V348.138H633.967V334.951C633.967 331.421 633.53 328.88 632.654 327.328C631.779 325.795 630.467 325.028 628.716 325.028C626.841 325.028 625.395 325.768 624.377 327.248C623.341 328.728 622.823 331.296 622.823 334.951Z" fill="#FFFAFE" fill-opacity="0.1"/>
</g>
</g>
</g>
</g>
<g clip-path="url(#clip7_243_743)">
<g clip-path="url(#clip8_243_743)">
<path d="M382.997 132.999H376.16C368.767 133.261 361.505 135.024 354.817 138.181C348.129 141.337 342.156 145.821 337.261 151.359V105.93C346.599 105.052 355.275 100.731 361.596 93.8114C367.916 86.8915 371.428 77.8687 371.445 68.5034V44.9648C371.445 41.8434 370.203 38.8498 367.992 36.6427C365.782 34.4355 362.783 33.1955 359.657 33.1955H356.121V7.06768C356.121 5.19483 355.376 3.39869 354.049 2.07439C352.723 0.750089 350.924 0.00610352 349.048 0.00610352C347.172 0.00610352 345.374 0.750089 344.047 2.07439C342.721 3.39869 341.976 5.19483 341.976 7.06768V33.1955H318.4V7.06768C318.4 5.19483 317.655 3.39869 316.329 2.07439C315.002 0.750089 313.203 0.00610352 311.328 0.00610352C309.452 0.00610352 307.653 0.750089 306.326 2.07439C305 3.39869 304.255 5.19483 304.255 7.06768V33.1955H300.954C297.828 33.1955 294.83 34.4355 292.619 36.6427C290.409 38.8498 289.167 41.8434 289.167 44.9648V68.5034C289.178 77.8318 292.657 86.824 298.929 93.7383C305.2 100.653 313.819 104.997 323.115 105.93V117.934C318.211 112.078 312.131 107.314 305.268 103.949C298.406 100.584 290.913 98.6927 283.273 98.3974H276.436C275.472 98.3791 274.515 98.5576 273.624 98.9219C272.732 99.2862 271.924 99.8286 271.249 100.516C270.561 101.189 270.018 101.996 269.653 102.886C269.288 103.777 269.109 104.732 269.128 105.694V112.285C269.714 126.162 275.53 139.305 285.41 149.082C295.29 158.859 308.505 164.549 322.408 165.012H323.351V217.738C323.351 219.611 324.096 221.407 325.423 222.731C326.749 224.056 328.548 224.8 330.424 224.8C332.299 224.8 334.098 224.056 335.425 222.731C336.751 221.407 337.496 219.611 337.496 217.738V199.613C351.275 198.978 364.315 193.212 374.047 183.452C383.778 173.692 389.495 160.647 390.069 146.887V140.296C390.102 139.329 389.936 138.365 389.58 137.465C389.224 136.565 388.687 135.748 388.002 135.063C387.317 134.379 386.498 133.843 385.596 133.488C384.695 133.133 383.73 132.966 382.761 132.999H382.997ZM283.744 112.756C293.655 113.418 302.989 117.648 310.013 124.661C317.037 131.674 321.274 140.993 321.937 150.888C312.025 150.227 302.692 145.997 295.668 138.984C288.644 131.971 284.407 122.652 283.744 112.756ZM303.312 68.5034V47.3187H357.535V68.5034C357.535 74.7462 355.052 80.7333 350.63 85.1477C346.209 89.562 340.213 92.042 333.96 92.042H326.887C320.635 92.042 314.638 89.562 310.217 85.1477C305.796 80.7333 303.312 74.7462 303.312 68.5034ZM337.496 185.49C338.11 175.577 342.331 166.23 349.364 159.207C356.398 152.184 365.76 147.97 375.688 147.358C375.075 157.27 370.854 166.618 363.82 173.641C356.787 180.663 347.425 184.878 337.496 185.49Z" fill="#FFFAFE" fill-opacity="0.1"/>
</g>
</g>
<path d="M532.101 212.592H403.329V223.145H532.101V212.592Z" fill="#FFFAFE" fill-opacity="0.1"/>
<path d="M255.871 212.592H127.099V223.145H255.871V212.592Z" fill="#FFFAFE" fill-opacity="0.1"/>
</g>
</g>
</g>
<defs>
<clipPath id="clip0_243_743">
<rect width="660" height="409" fill="white"/>
</clipPath>
<clipPath id="clip1_243_743">
<rect width="658.621" height="407.618" fill="white" transform="translate(0.289368 0.00610352)"/>
</clipPath>
<clipPath id="clip2_243_743">
<rect width="658.621" height="407.618" fill="white" transform="translate(0.289368 0.00610352)"/>
</clipPath>
<clipPath id="clip3_243_743">
<rect width="655.344" height="117.02" fill="white" transform="translate(1.92773 290.604)"/>
</clipPath>
<clipPath id="clip4_243_743">
<rect width="655.344" height="117.02" fill="white" transform="translate(1.92773 290.604)"/>
</clipPath>
<clipPath id="clip5_243_743">
<rect width="655.344" height="117.02" fill="white" transform="translate(1.92773 290.604)"/>
</clipPath>
<clipPath id="clip6_243_743">
<rect width="655.344" height="117.02" fill="white" transform="translate(1.92773 290.604)"/>
</clipPath>
<clipPath id="clip7_243_743">
<rect width="147.458" height="224.793" fill="white" transform="translate(255.871 0.00610352)"/>
</clipPath>
<clipPath id="clip8_243_743">
<rect width="120.947" height="224.793" fill="white" transform="translate(269.126 0.00610352)"/>
</clipPath>
</defs>
</svg>
