<svg width="166" height="26" viewBox="0 0 166 26" fill="none" xmlns="http://www.w3.org/2000/svg">
<rect x="0.741108" y="1.2632" width="164.422" height="23.2765" rx="4.57048" fill="url(#paint0_linear_838_636)"/>
<rect x="0.741108" y="1.2632" width="164.422" height="23.2765" rx="4.57048" stroke="#16261E" stroke-width="1.01566"/>
<path d="M51.9486 13.7861C52.0962 13.8793 52.273 13.9745 52.4789 14.0716C52.6887 14.1687 52.9043 14.2562 53.1257 14.3339C53.351 14.4115 53.5705 14.4756 53.7842 14.5261C54.0017 14.5767 54.1921 14.6019 54.3552 14.6019C54.4213 14.6019 54.5029 14.6 54.6 14.5961C54.6971 14.5922 54.8 14.5844 54.9088 14.5728C55.0176 14.5572 55.1264 14.5359 55.2351 14.5087C55.3439 14.4776 55.441 14.4368 55.5265 14.3863C55.6158 14.3319 55.6877 14.2659 55.7421 14.1882C55.7965 14.1066 55.8256 14.0075 55.8295 13.891C55.8295 13.8832 55.8295 13.8774 55.8295 13.8735C55.8295 13.7181 55.7848 13.5433 55.6955 13.3491C55.61 13.1509 55.4915 12.945 55.34 12.7314C55.1885 12.5138 55.0137 12.2963 54.8156 12.0787C54.6175 11.8612 54.4116 11.6533 54.1979 11.4552C53.9842 11.2532 53.7686 11.0687 53.5511 10.9016C53.3374 10.7307 53.1373 10.587 52.9509 10.4704L53.8191 9.18261C54.1765 9.42735 54.5281 9.70317 54.8739 10.0101C55.2235 10.317 55.544 10.6452 55.8353 10.9949C56.1306 11.3406 56.385 11.7019 56.5987 12.0787C56.8163 12.4556 56.9716 12.8363 57.0649 13.2209C57.1154 13.4423 57.1406 13.654 57.1406 13.856C57.1406 14.0503 57.1037 14.2833 57.0299 14.5553C56.96 14.8272 56.7988 15.0953 56.5463 15.3594C56.2937 15.6197 55.9733 15.8198 55.5848 15.9596C55.2507 16.0801 54.8836 16.1403 54.4834 16.1403C54.4174 16.1403 54.3494 16.1383 54.2795 16.1345C54.0231 16.1345 53.7628 16.1092 53.4986 16.0587C53.2345 16.0121 52.9742 15.946 52.7178 15.8606C52.4653 15.7751 52.2205 15.678 51.9836 15.5692C51.7505 15.4566 51.5329 15.3381 51.3309 15.2138L51.9486 13.7861ZM60.5469 16.0762C60.0613 16.0762 59.6029 15.9674 59.1716 15.7499C58.7443 15.5323 58.3422 15.2293 57.9654 14.8408L58.822 13.6346C59.1755 13.9609 59.5057 14.1979 59.8126 14.3455C60.1195 14.4892 60.4128 14.5611 60.6925 14.5611C60.8285 14.5611 60.9722 14.5495 61.1238 14.5261C61.2791 14.499 61.4326 14.462 61.5841 14.4154C61.7356 14.3688 61.8793 14.3144 62.0153 14.2523C62.1552 14.1862 62.2756 14.1163 62.3766 14.0425L60.5177 9.55555L61.8988 8.97866C61.9648 9.14959 62.0386 9.33217 62.1202 9.52641C62.2018 9.72065 62.2892 9.93043 62.3824 10.1557L63.8451 13.6812C63.8994 13.8133 63.9558 13.9357 64.014 14.0483C64.0762 14.1571 64.1461 14.2523 64.2238 14.3339C64.3054 14.4115 64.3967 14.4737 64.4977 14.5203C64.6026 14.5631 64.723 14.5844 64.859 14.5844H64.993V16.0762H64.859C64.6142 16.0762 64.4025 16.0568 64.2238 16.0179C64.049 15.9829 63.8956 15.9344 63.7635 15.8722C63.6314 15.8062 63.5148 15.7304 63.4138 15.645C63.3128 15.5556 63.2157 15.4604 63.1225 15.3594C62.936 15.4993 62.7457 15.6158 62.5514 15.7091C62.3572 15.8023 62.1532 15.8761 61.9396 15.9305C61.7259 15.9849 61.5045 16.0218 61.2753 16.0412C61.0461 16.0645 60.8033 16.0762 60.5469 16.0762ZM64.7617 14.5844H65.9446C66.4225 14.5844 66.9042 14.5378 67.3898 14.4446C67.8754 14.3474 68.3532 14.2231 68.8233 14.0716C69.2933 13.9162 69.7498 13.7434 70.1926 13.553C70.6355 13.3588 71.0531 13.1645 71.4455 12.9703C71.2862 12.9509 71.1192 12.912 70.9444 12.8537C70.7734 12.7916 70.5967 12.7217 70.4141 12.644C70.2315 12.5624 70.045 12.4769 69.8547 12.3876C69.6643 12.2982 69.474 12.2186 69.2836 12.1487C69.0932 12.0748 68.901 12.0146 68.7067 11.968C68.5164 11.9175 68.3299 11.8923 68.1473 11.8923C68.0036 11.8923 67.8657 11.9194 67.7336 11.9738C67.6054 12.0243 67.483 12.0904 67.3665 12.172C67.2538 12.2497 67.1508 12.3351 67.0576 12.4284C66.9683 12.5216 66.8906 12.609 66.8245 12.6906C66.7624 12.7683 66.7138 12.8343 66.6788 12.8887L66.6206 12.9703L65.4551 12.3351C65.5911 12.0787 65.762 11.834 65.9679 11.6009C66.1777 11.3639 66.405 11.1561 66.6497 10.9774C66.8945 10.7948 67.145 10.6511 67.4014 10.5462C67.6617 10.4374 67.9103 10.383 68.1473 10.383C68.3454 10.383 68.5436 10.4063 68.7417 10.4529C68.9437 10.4957 69.1457 10.5539 69.3477 10.6278C69.5536 10.7016 69.7595 10.7851 69.9654 10.8783C70.1752 10.9716 70.3888 11.0667 70.6064 11.1639C70.8317 11.2726 71.0784 11.3814 71.3464 11.4902C71.6145 11.5951 71.8903 11.6902 72.1739 11.7757C72.4575 11.8573 72.7411 11.9253 73.0247 11.9797C73.3121 12.0302 73.586 12.0554 73.8463 12.0554L73.5957 13.4773C73.4481 13.5394 73.3063 13.6074 73.1703 13.6812C73.0344 13.7511 72.8945 13.8191 72.7508 13.8852C72.8285 14.0483 72.945 14.1765 73.1004 14.2698C73.2558 14.363 73.419 14.4329 73.5899 14.4795C73.7647 14.5261 73.9318 14.5553 74.091 14.5669C74.2542 14.5786 74.3824 14.5844 74.4756 14.5844H74.7087V16.0762H74.4756C73.7142 16.0762 73.0693 15.9441 72.541 15.6799C72.0127 15.4158 71.632 15.0409 71.3989 14.5553C71.0065 14.7495 70.6006 14.9379 70.181 15.1205C69.7614 15.3031 69.3263 15.4663 68.8757 15.61C68.4251 15.7499 67.955 15.8625 67.4655 15.948C66.9799 16.0335 66.473 16.0762 65.9446 16.0762H64.7617V14.5844ZM70.688 17.97L69.5691 19.0888L68.4561 17.97L69.5691 16.857L70.688 17.97ZM74.5899 14.5844C74.8735 14.5844 75.1201 14.532 75.3299 14.4271C75.5397 14.3183 75.7242 14.1785 75.8835 14.0075C76.0467 13.8366 76.1885 13.6443 76.3089 13.4306C76.4332 13.217 76.5497 13.0033 76.6585 12.7896C76.7673 12.5643 76.8858 12.3409 77.014 12.1195C77.1422 11.8981 77.2879 11.7 77.451 11.5251C77.6142 11.3464 77.8006 11.2027 78.0104 11.0939C78.2202 10.9813 78.463 10.9249 78.7388 10.9249C78.9875 10.9249 79.2147 10.9638 79.4206 11.0415C79.6304 11.1153 79.8169 11.2202 79.98 11.3562C80.1471 11.4882 80.2927 11.6436 80.4171 11.8223C80.5414 11.9971 80.6443 12.1875 80.7259 12.3934C80.8075 12.5954 80.8677 12.8052 80.9065 13.0227C80.9493 13.2403 80.9706 13.4559 80.9706 13.6696C80.9706 13.8677 80.9532 14.06 80.9182 14.2464C80.8871 14.4329 80.8386 14.6136 80.7725 14.7884C80.6987 14.9748 80.6016 15.1438 80.4812 15.2953C80.3646 15.4468 80.2306 15.577 80.0791 15.6858C79.9276 15.7907 79.7644 15.8722 79.5896 15.9305C79.4148 15.9888 79.2322 16.0179 79.0418 16.0179C78.8787 16.0179 78.7058 15.9965 78.5232 15.9538C78.3445 15.915 78.1619 15.8606 77.9755 15.7907C77.8939 15.7557 77.8026 15.7149 77.7016 15.6683C77.6006 15.6178 77.4976 15.5634 77.3927 15.5051C77.2879 15.4468 77.183 15.3866 77.0781 15.3245C76.9771 15.2584 76.8819 15.1943 76.7925 15.1322C76.4856 15.4352 76.1554 15.6683 75.8019 15.8314C75.4523 15.9946 75.0483 16.0762 74.5899 16.0762H74.4733V14.5844H74.5899ZM77.6666 13.9026C77.7715 13.9726 77.9017 14.0503 78.057 14.1357C78.2163 14.2212 78.3814 14.2989 78.5524 14.3688C78.7233 14.4387 78.8923 14.4912 79.0593 14.5261C79.1526 14.5495 79.238 14.5611 79.3157 14.5611C79.3779 14.5611 79.4342 14.5533 79.4847 14.5378C79.5236 14.53 79.5643 14.5067 79.6071 14.4679C79.6537 14.4251 79.6945 14.3688 79.7295 14.2989C79.7683 14.229 79.7994 14.1474 79.8227 14.0541C79.8382 13.9764 79.846 13.891 79.846 13.7977C79.846 13.7783 79.846 13.7589 79.846 13.7395C79.846 13.5647 79.8149 13.3898 79.7528 13.215C79.6945 13.0363 79.6129 12.879 79.508 12.743C79.4031 12.6071 79.2788 12.5022 79.1351 12.4284C79.038 12.3817 78.9331 12.3584 78.8204 12.3584C78.766 12.3584 78.7097 12.3643 78.6514 12.3759C78.597 12.3876 78.5426 12.4186 78.4883 12.4691C78.4378 12.5158 78.3756 12.5973 78.3018 12.7139C78.228 12.8265 78.1406 12.98 78.0396 13.1742C77.9386 13.3646 77.8142 13.6074 77.6666 13.9026ZM99.8625 10.3422C99.8858 10.385 99.9246 10.4626 99.979 10.5753C100.037 10.6841 100.101 10.8181 100.171 10.9774C100.241 11.1328 100.313 11.3095 100.387 11.5077C100.465 11.7058 100.535 11.9136 100.597 12.1312C100.659 12.3487 100.709 12.574 100.748 12.8071C100.791 13.0363 100.812 13.2616 100.812 13.4831C100.808 13.8405 100.754 14.1765 100.649 14.4912C100.548 14.802 100.397 15.0739 100.195 15.307C99.9965 15.5401 99.7518 15.7246 99.4604 15.8606C99.1691 15.9927 98.8311 16.0587 98.4465 16.0587C98.26 16.0587 98.093 16.0373 97.9453 15.9946C97.7977 15.9558 97.6656 15.8994 97.5491 15.8256C97.4325 15.7518 97.3296 15.6663 97.2403 15.5692C97.1548 15.4721 97.079 15.3653 97.013 15.2487C96.9275 15.3691 96.8401 15.4799 96.7508 15.5809C96.6614 15.6819 96.5546 15.7693 96.4303 15.8431C96.3098 15.913 96.1642 15.9674 95.9932 16.0063C95.8223 16.0451 95.6145 16.0645 95.3697 16.0645C95.1483 16.0645 94.954 16.0432 94.787 16.0004C94.62 15.9577 94.4801 15.9091 94.3674 15.8547C94.3713 15.9363 94.3733 16.014 94.3733 16.0878C94.3733 16.4647 94.3208 16.8279 94.2159 17.1775C94.111 17.5272 93.9498 17.8515 93.7323 18.1507C93.5147 18.4498 93.2525 18.7101 92.9456 18.9315C92.6426 19.1568 92.3143 19.3414 91.9608 19.4851C91.6073 19.6288 91.2363 19.7357 90.8478 19.8056C90.4632 19.8794 90.0786 19.9163 89.694 19.9163C89.123 19.9163 88.5966 19.8211 88.1149 19.6308C87.6331 19.4443 87.2155 19.1801 86.862 18.8383C86.5124 18.5003 86.2385 18.0924 86.0404 17.6146C85.8423 17.1406 85.7432 16.6142 85.7432 16.0354C85.7548 15.6974 85.7976 15.3556 85.8714 15.0098C85.9491 14.6602 86.0462 14.3222 86.1627 13.9959C86.2832 13.6696 86.4153 13.3607 86.559 13.0693C86.7066 12.778 86.8562 12.5177 87.0077 12.2885L88.2139 13.1801C88.078 13.3976 87.9459 13.6229 87.8177 13.856C87.6934 14.0891 87.5807 14.328 87.4797 14.5728C87.3826 14.8136 87.3049 15.0603 87.2466 15.3128C87.1883 15.5653 87.1592 15.8198 87.1592 16.0762C87.1592 16.1034 87.1592 16.1325 87.1592 16.1636C87.1592 16.4511 87.2155 16.7288 87.3282 16.9969C87.4408 17.2688 87.6079 17.5097 87.8293 17.7195C88.0508 17.9331 88.3169 18.1002 88.6277 18.2206C88.9423 18.3449 89.29 18.4071 89.6707 18.4071C90.0903 18.4071 90.469 18.3682 90.807 18.2905C91.145 18.2128 91.4422 18.1021 91.6986 17.9584C91.955 17.8146 92.1667 17.6437 92.3338 17.4456C92.5047 17.2513 92.6309 17.0338 92.7125 16.7929C92.8135 16.455 92.864 16.1189 92.864 15.7848C92.864 15.7615 92.8621 15.6566 92.8582 15.4702C92.8543 15.2798 92.8077 15.0098 92.7183 14.6602C92.6329 14.3067 92.5163 13.9551 92.3687 13.6055C92.2211 13.2558 92.0638 12.9062 91.8967 12.5566L93.2078 11.7524C93.2622 11.8923 93.3263 12.0632 93.4001 12.2652C93.4739 12.4672 93.5575 12.677 93.6507 12.8945C93.7439 13.1121 93.8488 13.3277 93.9654 13.5414C94.0819 13.755 94.2082 13.9415 94.3441 14.1008C94.4801 14.26 94.6297 14.3824 94.7928 14.4679C94.9055 14.5339 95.0259 14.5669 95.1541 14.5669C95.2046 14.5669 95.2551 14.5611 95.3056 14.5495C95.4999 14.5456 95.6533 14.497 95.766 14.4038C95.8825 14.3105 95.9719 14.1901 96.034 14.0425C96.0962 13.891 96.135 13.7201 96.1506 13.5297C96.17 13.3355 96.1797 13.1354 96.1797 12.9295L96.1506 11.9447L97.5782 11.799L97.6132 12.4866C97.6171 12.576 97.6268 12.6906 97.6423 12.8304C97.6579 12.9703 97.6812 13.1179 97.7123 13.2733C97.7433 13.4287 97.7822 13.586 97.8288 13.7453C97.8754 13.9046 97.9337 14.0483 98.0036 14.1765C98.0735 14.3008 98.1532 14.4038 98.2425 14.4854C98.3358 14.5631 98.4426 14.6019 98.563 14.6019C98.866 14.6019 99.0894 14.5009 99.2332 14.2989C99.3769 14.093 99.4488 13.7958 99.4488 13.4073C99.4488 13.2597 99.4235 13.0965 99.373 12.9178C99.3264 12.7353 99.2603 12.543 99.1749 12.3409C99.0933 12.1389 98.9962 11.9292 98.8835 11.7116C98.7747 11.4902 98.6582 11.2668 98.5339 11.0415L99.8625 10.3422ZM96.5818 9.01945L95.5912 10.0101L94.5889 9.01362L95.5795 8.01717L96.5818 9.01945ZM98.7845 9.02527L97.7938 10.0217L96.7916 9.01945L97.7822 8.02882L98.7845 9.02527ZM95.7776 7.33538L96.6867 6.42634L97.6015 7.34121L96.6925 8.25026L95.7776 7.33538ZM109.402 14.5844V16.0762H109.052C108.617 16.0762 108.258 15.9888 107.974 15.814C107.691 15.6353 107.473 15.3691 107.322 15.0156C107.038 15.373 106.704 15.6586 106.319 15.8722C105.939 16.0859 105.533 16.2432 105.102 16.3442C104.674 16.4491 104.237 16.5055 103.79 16.5132C103.736 16.5132 103.684 16.5132 103.633 16.5132C103.237 16.5132 102.856 16.488 102.491 16.4375L102.747 14.9515C102.949 14.9748 103.126 14.9943 103.278 15.0098C103.433 15.0253 103.577 15.0351 103.709 15.0389C103.775 15.0428 103.841 15.0448 103.907 15.0448C103.973 15.0448 104.053 15.0428 104.146 15.0389C104.239 15.0312 104.36 15.0156 104.507 14.9923C104.48 14.6582 104.416 14.3164 104.315 13.9667C104.218 13.6171 104.097 13.2714 103.954 12.9295C103.81 12.5876 103.649 12.2535 103.47 11.9272C103.295 11.6009 103.116 11.2921 102.934 11.0007C102.755 10.7093 102.58 10.4413 102.409 10.1965C102.242 9.9518 102.091 9.74202 101.955 9.5672C101.823 9.3885 101.714 9.24865 101.629 9.14764C101.547 9.04275 101.504 8.98837 101.5 8.98448L102.596 7.86566C103.078 8.50277 103.503 9.14764 103.872 9.80029C104.241 10.4491 104.556 11.0667 104.816 11.6533C105.08 12.2399 105.292 12.7722 105.451 13.25C105.614 13.7239 105.731 14.1046 105.801 14.3921C105.937 14.33 106.077 14.2348 106.22 14.1066C106.364 13.9745 106.49 13.8172 106.599 13.6346C106.708 13.4481 106.789 13.2383 106.844 13.0052C106.871 12.8848 106.885 12.7605 106.885 12.6323C106.885 12.5158 106.873 12.3934 106.85 12.2652L105.958 7.19553L107.403 6.8459L108.155 12.4225C108.194 12.7255 108.233 13.0091 108.272 13.2733C108.314 13.5375 108.373 13.7667 108.446 13.9609C108.524 14.1552 108.627 14.3086 108.755 14.4213C108.887 14.53 109.064 14.5844 109.285 14.5844H109.402ZM109.171 14.5844H110.412C110.595 14.5844 110.791 14.5747 111 14.5553C111.214 14.532 111.41 14.4873 111.589 14.4213C111.772 14.3513 111.921 14.2523 112.038 14.1241C112.158 13.9959 112.218 13.8249 112.218 13.6113C112.218 13.5103 112.197 13.3685 112.154 13.1859C112.112 13.0033 112.055 12.8013 111.985 12.5799C111.915 12.3584 111.832 12.1292 111.735 11.8923C111.641 11.6553 111.542 11.4338 111.438 11.228L112.784 10.5637C112.881 10.7851 112.978 11.0201 113.075 11.2687C113.172 11.5174 113.258 11.7738 113.331 12.0379C113.409 12.2982 113.471 12.5604 113.518 12.8246C113.564 13.0888 113.588 13.3471 113.588 13.5996C113.588 14.0503 113.504 14.4329 113.337 14.7476C113.17 15.0623 112.941 15.3186 112.65 15.5168C112.362 15.711 112.024 15.8528 111.636 15.9422C111.251 16.0315 110.839 16.0762 110.4 16.0762H109.171V14.5844ZM111.781 8.51248L110.791 9.5031L109.788 8.50665L110.779 7.5102L111.781 8.51248ZM113.984 8.51831L112.993 9.51476L111.991 8.51248L112.982 7.52186L113.984 8.51831Z" fill="url(#paint1_linear_838_636)"/>
<defs>
<linearGradient id="paint0_linear_838_636" x1="82.9522" y1="0.755371" x2="82.9522" y2="25.0475" gradientUnits="userSpaceOnUse">
<stop stop-color="#0C1711"/>
<stop offset="0.347261" stop-color="#0A120D"/>
<stop offset="1" stop-color="#0A120D"/>
</linearGradient>
<linearGradient id="paint1_linear_838_636" x1="82.9521" y1="4.90137" x2="82.9521" y2="20.9014" gradientUnits="userSpaceOnUse">
<stop stop-color="#D8FEE5"/>
<stop offset="1" stop-color="#C0E4CD"/>
</linearGradient>
</defs>
</svg>
